<svg width="93" height="104" viewBox="0 0 93 104" fill="none" xmlns="http://www.w3.org/2000/svg">
<path d="M1 32.1729V71.513C1 75.0428 2.86092 78.3112 5.89644 80.1126L41.0831 100.995C44.2084 102.849 48.0939 102.863 51.2318 101.029L87.0451 80.1021C90.1137 78.309 92 75.022 92 71.468V32.2177C92 28.6432 90.092 25.3404 86.9954 23.5548L51.1816 2.90303C48.0691 1.10821 44.233 1.12113 41.1326 2.93687L5.94636 23.5438C2.88261 25.3381 1 28.6224 1 32.1729Z" fill="#346C81" stroke="#505758"/>
<path d="M22.4471 42.3766L21.11 44.0101H23.2209H33.8171C35.3641 44.0101 36.3254 42.3289 35.5407 40.9957L33.7539 37.9596C32.9844 36.6521 31.0963 36.6439 30.3155 37.9446L28.7577 40.5396L27.954 39.5067C27.1658 38.4938 25.641 38.475 24.828 39.4682L22.4471 42.3766Z" stroke="#F9BA7F" stroke-width="2"/>
<path d="M20.0465 45.183V35.5491C20.0465 34.9968 20.4942 34.5491 21.0465 34.5491H37.7403C38.2926 34.5491 38.7403 34.9968 38.7403 35.5491V45.183C38.7403 45.7353 38.2926 46.183 37.7403 46.183H21.0465C20.4942 46.183 20.0465 45.7353 20.0465 45.183Z" stroke="#F9BA7F" stroke-width="2"/>
<path d="M22.8682 34.5491L28.9605 30.0623C29.3209 29.7968 29.8138 29.8032 30.1672 30.078L35.9186 34.5491" stroke="#F9BA7F" stroke-width="2"/>
<path d="M21.1047 58.8746V55.8253C21.1047 55.2947 21.3155 54.7859 21.6908 54.4108L22.6352 53.4668C23.0103 53.0919 23.5188 52.8813 24.0491 52.8813H35.0905C35.6207 52.8813 36.1293 53.0919 36.5044 53.4668L37.4488 54.4108C37.8241 54.7859 38.0349 55.2947 38.0349 55.8253V58.8746M21.1047 58.8746L19.3345 60.3912C18.891 60.7711 18.6357 61.326 18.6357 61.91V69.9792C18.6357 70.4662 19.0305 70.861 19.5175 70.861V70.861C20.0045 70.861 20.3992 71.2558 20.3992 71.7428V72.7992C20.3992 73.6758 21.1099 74.3864 21.9865 74.3864V74.3864C22.863 74.3864 23.5737 73.6758 23.5737 72.7992V72.6237C23.5737 71.6502 24.3629 70.861 25.3364 70.861H33.4505C34.424 70.861 35.2132 71.6502 35.2132 72.6237V72.7992C35.2132 73.6758 35.9238 74.3864 36.8004 74.3864V74.3864C37.677 74.3864 38.3876 73.6758 38.3876 72.7992V71.7428C38.3876 71.2558 38.7824 70.861 39.2694 70.861V70.861C39.7564 70.861 40.1512 70.4662 40.1512 69.9792V61.8185C40.1512 61.2879 39.9403 60.7791 39.5651 60.404L38.0349 58.8746M21.1047 58.8746L22.8749 60.3912C23.3184 60.7711 23.5737 61.326 23.5737 61.91V63.5729C23.5737 64.6774 24.4691 65.5729 25.5737 65.5729H33.5659C34.6705 65.5729 35.5659 64.6774 35.5659 63.5729V61.91C35.5659 61.326 35.8212 60.7711 36.2647 60.3912L38.0349 58.8746" stroke="white" stroke-width="2"/>
<path d="M47.9109 41.9525H50.1779C51.3992 41.9525 52.3353 40.8674 52.1563 39.6592L51.3383 34.1406C51.1929 33.16 50.3512 32.4338 49.3599 32.4338H46.4619C45.4706 32.4338 44.6288 33.16 44.4835 34.1406L43.6655 39.6592C43.4865 40.8674 44.4226 41.9525 45.6439 41.9525H47.9109ZM47.9109 41.9525V72.3864C47.9109 73.491 47.0155 74.3864 45.9109 74.3864H45.4419H50.0272" stroke="#F9BA7F" stroke-width="2"/>
<path d="M60.9613 35.9592L64.1357 39.1321M64.1357 39.1321H65.8992M64.1357 39.1321V39.1321C63.7034 39.3482 63.4302 39.79 63.4302 40.2733V43.0101M65.8992 39.1321L68.3682 36.3118M65.8992 39.1321V39.1321C66.2888 39.1321 66.6047 39.4479 66.6047 39.8375V43.0101M66.6047 43.0101H68.8372C69.9418 43.0101 70.8372 43.9055 70.8372 45.0101V49.4711C70.8372 50.5757 69.9418 51.4711 68.8372 51.4711H64.8411M66.6047 43.0101H63.4302M64.8411 51.4711V54.644M64.8411 51.4711H61.1977C60.0931 51.4711 59.1977 50.5757 59.1977 49.4711V45.0101C59.1977 43.9055 60.0931 43.0101 61.1977 43.0101H63.4302M64.8411 54.644H67.1083C67.6751 54.644 68.2044 54.9272 68.5189 55.3987V55.3987C68.6521 55.5984 68.7414 55.824 68.7808 56.0607L69.0737 57.8169M64.8411 54.644H62.9266C62.3598 54.644 61.8305 54.9272 61.516 55.3987V55.3987C61.3828 55.5984 61.2936 55.824 61.2541 56.0607L60.9613 57.8169M69.0737 57.8169H71.3062C72.4108 57.8169 73.3062 58.7123 73.3062 59.8169V62.7525M69.0737 57.8169H60.9613M73.3062 74.3864V70.8609M73.3062 70.8609H64.8411H58.7287C57.6241 70.8609 56.7287 71.7564 56.7287 72.8609V74.3864V62.7525M73.3062 70.8609V62.7525M60.9613 57.8169H58.7287C57.6241 57.8169 56.7287 58.7123 56.7287 59.8169V62.7525M56.7287 62.7525H73.3062M60.9613 66.8798V67.159C60.9613 67.4512 61.1981 67.688 61.4903 67.688V67.688C61.7825 67.688 62.0194 67.4512 62.0194 67.159V66.7767C62.0194 66.5012 61.796 66.2779 61.5205 66.2779V66.2779C61.3883 66.2779 61.2614 66.3304 61.1679 66.4239L61.1377 66.4541C61.0247 66.567 60.9613 66.7201 60.9613 66.8798ZM69.0737 66.9833V67.1372C69.0737 67.4609 68.8533 67.7431 68.5392 67.8216V67.8216C68.094 67.9328 67.6628 67.5961 67.6628 67.1372V66.9833C67.6628 66.5937 67.9786 66.2779 68.3682 66.2779V66.2779C68.7578 66.2779 69.0737 66.5937 69.0737 66.9833Z" stroke="white" stroke-width="2"/>
</svg>
